<svg xmlns="http://www.w3.org/2000/svg" viewBox="0 0 1200 650"><defs><linearGradient id="g" x1="0" y1="0" x2="0" y2="1"><stop stop-color="#51bac8"/><stop offset="1" stop-color="#f7c875"/></linearGradient></defs><rect width="1200" height="650" fill="url(#g)"/><circle cx="1000" cy="100" r="55" fill="#ffe29a"/><path d="M0 400Q300 350 620 400T1200 390V650H0Z" fill="#54d0c7"/><path d="M0 520Q300 470 650 520T1200 515V650H0Z" fill="#efd19a"/><path d="M420 300L590 220L760 300Z" fill="#76552d"/><rect x="445" y="300" width="290" height="175" rx="10" fill="#fff0d1"/><g fill="#0a604f"><path d="M170 530L190 210L210 530Z"/><path d="M190 215q-135-15-145 60q100-35 145-5q-100 25-110 95q75-50 115-48q-30 75 15 125q10-85 30-125q35 50 110 60q-40-65-105-95q90 0 135-55q-85-15-145 20q50-55 45-115q-60 25-90 103Z"/></g><rect x="55" y="45" width="540" height="135" rx="20" fill="#082c4c" opacity=".88"/><text x="88" y="112" fill="#efcb7e" font-family="Georgia" font-size="65" font-weight="700">FIJI</text><text x="88" y="153" fill="white" font-family="Arial" font-size="25">Coral Coast • easiest family logistics</text><text x="70" y="620" fill="#082c4c" font-family="Arial" font-size="18">Illustrative visual • see official hotel gallery for real photography</text></svg>