<svg xmlns="http://www.w3.org/2000/svg" viewBox="0 0 800 600"><defs><linearGradient id="s" x2="0" y2="1"><stop stop-color="#75c9ee"/><stop offset=".7" stop-color="#dff5f2"/></linearGradient></defs><rect width="800" height="600" fill="url(#s)"/><rect y="330" width="800" height="270" fill="#35bfc9"/><path d="M60 405Q120 275 185 405Z" fill="#345f52"/><path d="M120 405Q190 225 260 405Z" fill="#416e5c"/><path d="M260 415Q350 245 435 415Z" fill="#2f5b4f"/><path d="M410 405Q505 205 595 405Z" fill="#426e5a"/><path d="M560 415Q645 270 735 415Z" fill="#325c50"/><path d="M0 468Q180 435 365 470T800 452" fill="none" stroke="#e8ffff" stroke-width="10" opacity=".6"/><path d="M570 485c-55-20-110 0-155 18 60 7 118 7 177-5z" fill="#7a4a27"/><path d="M515 480l72-40 10 7-62 45z" fill="#6c4428"/></svg>